{"title":"The Bourne Supremacy[2004]DvDrip AC3[Eng]-FXG","uid":5809507,"size":739457444,"categoryP":"video","categoryS":"other","magnet":"?xt=urn:btih:e5a989fbdb16fe0da919653004067340d5a0ccb5&amp;dn=The+Bourne+Supremacy%5B2004%5DDvDrip+AC3%5BEng%5D-FXG&amp;tr=udp%3A%2F%2Ftracker.openbittorrent.com%3A80&amp;tr=udp%3A%2F%2Fopen.demonii.com%3A1337&amp;tr=udp%3A%2F%2Ftracker.coppersurfer.tk%3A6969&amp;tr=udp%3A%2F%2Fexodus.desync.com%3A6969","seeders":2,"leechers":0,"uploader":"kuttunni","files":2,"time":1283574187,"description":"Duration: 01:48:25.08, start: 0.000000, bitrate: 909 kb/s\nStream #0.0: Video: mpeg4, yuv420p, 608x256 [PAR 1:1 DAR 19:8], 23.98 tb(r)\nStream #0.1: Audio: mp3, 48000 Hz, stereo, s16, 112 kb/s","torrent":{"xt":"urn:btih:e5a989fbdb16fe0da919653004067340d5a0ccb5","amp;dn":"The+Bourne+Supremacy%5B2004%5DDvDrip+AC3%5BEng%5D-FXG","amp;tr":["udp%3A%2F%2Ftracker.openbittorrent.com%3A80","udp%3A%2F%2Fopen.demonii.com%3A1337","udp%3A%2F%2Ftracker.coppersurfer.tk%3A6969","udp%3A%2F%2Fexodus.desync.com%3A6969"],"infoHash":"e5a989fbdb16fe0da919653004067340d5a0ccb5","infoHashBuffer":{"type":"Buffer","data":[229,169,137,251,219,22,254,13,169,25,101,48,4,6,115,64,213,160,204,181]},"announce":[],"urlList":[]}}